<svg xmlns="http://www.w3.org/2000/svg" version="1.1" xmlns:xlink="http://www.w3.org/1999/xlink" xmlns:svgjs="http://svgjs.dev/svgjs" width="1000" height="1125" viewBox="0 0 1000 1125"><g transform="matrix(1,0,0,1,1.7053025658242404e-13,0)"><svg viewBox="0 0 320 360" data-background-color="#ffffff" preserveAspectRatio="xMidYMid meet" height="1125" width="1000" xmlns="http://www.w3.org/2000/svg" xmlns:xlink="http://www.w3.org/1999/xlink"><g id="tight-bounds" transform="matrix(1,0,0,1,0,0)"><svg viewBox="0 0 320 360" height="360" width="320"><g><svg></svg></g><g><svg viewBox="0 0 320 360" height="360" width="320"><g><path d="M20.961 227.22l3.726 4.658-1.863-6.056c-0.466-2.795-3.726 0.466-1.863 1.398M25.153 224.425c1.397 2.329 2.795 4.658 2.795 6.987 0 3.261 2.795 4.658 5.123 5.589-3.261-3.726-5.124-13.974-7.918-12.576M204.017 26.929c7.918 0 15.371-0.932 23.756 0.931 20.495 5.124 37.729 15.371 49.374 29.811l32.606 52.169c1.397 13.042 4.192 27.482 3.726 43.319 3.261 0 2.795-4.658 6.521-5.59-3.726 9.316-5.59 20.961-6.521 34.469-2.329-7.453 0-18.632 0.466-24.687-3.261 5.124-5.124 1.397-5.124-0.932 0.466-3.726-1.397-3.261-2.795-4.658-5.124-4.658-8.384-9.782-12.11-17.7 2.329-6.055 2.795-14.905-4.658-19.563-2.329-1.397-5.124-3.726-6.521-7.453-1.863-5.124-5.124-11.179-4.193-19.097 0.466-2.329-6.987 5.124-11.179 1.863-18.166-12.576-36.332-27.016-58.224-39.127-11.645 0-20.029-4.192-24.221-9.316-3.726-4.658-0.932-10.713 4.658-11.179 3.261 0 6.987-0.932 9.782 0.932 0.466-1.863 2.329-4.192 4.657-4.192M157.904 16.215l0.932 0.466c4.658 0.932 6.987 7.453 12.11 5.124 0 3.261 0.466 6.521-0.466 8.85-1.397 3.726-5.59 3.726-8.85 3.726-31.208-1.863-49.374 11.179-68.471 22.358-5.124 3.261-10.713 5.59-14.906 9.782-20.029 18.632-41.921 35.866-47.045 70.335l-4.192 38.195c-0.466 4.192-5.124 8.384-4.192 13.508l3.26 22.824c-3.261-3.261-5.124 0.932-4.192 2.795 0.466 1.397 2.329 6.055 5.124 1.863 3.726 6.987 7.453 20.495 12.576 26.55 15.837 18.632 36.332 35.4 53.101 52.169 4.192-0.932 7.453-0.932 8.384-3.727 1.397 2.795-1.397 5.59-3.726 6.056 7.453 4.658 15.837 8.85 27.016 9.781 14.44 0.932 27.948 3.261 40.524 6.522 6.521-1.863 13.042-2.795 20.029-3.261 2.329 0 3.726-3.726 6.521-4.658l0.466-4.658c2.795 4.192 2.329-1.397 0.466-4.192 3.261 2.795 4.192 5.124 5.589 6.987 0-1.397 3.726-6.521 3.727-0.466l0.931-6.055c1.397-0.932 1.863 5.124 3.261 0.931 1.397-4.192 4.192-0.932 6.987-2.329-0.932 1.863-0.466 5.59 2.794 3.261l3.727-3.261c2.329 5.59 6.055 3.261 7.918 2.329 20.495-13.042 40.99-28.413 60.553-43.784l-0.466 6.055 2.329-7.453c2.329 2.329 4.192 0.466 5.124-0.931 2.795-4.658 6.521-9.316 12.577-13.508-7.453 20.029-16.303 35.866-27.482 48.908l-4.658 5.59c0 3.261-0.932 7.453-4.658 7.918-1.863 0.466-5.59-0.932-8.384 1.863-1.397 1.863 3.261 5.59-0.466 2.795-3.261-2.329-6.521 0-10.248 0.932-2.795 0.932 1.863 3.726 2.795 5.589 0.932 1.863 1.863 3.726 1.398 6.056l-5.124-5.59c-6.055 3.261-9.782 9.316-14.906 13.974-2.329 1.863-1.397 5.124-1.397 7.918-3.261 0-6.987-0.932-8.85 0.932-1.397 1.863-0.932 4.658-0.932 7.453-4.658-0.466-5.124-7.453-9.315-6.056-4.192 0.932-8.85 1.397-12.577 3.727 2.795 5.59-4.658 2.329-3.726 3.26-6.987-4.192-13.042-7.453-20.495-4.658-15.837-5.124-35.4-2.795-49.84-0.931 0-2.329 0.466-4.658-0.466-5.124-0.932 2.329-3.726 1.397-3.26 1.397-8.85-6.055-17.7-9.782-27.016-14.905-8.384 0.932-16.303-3.261-18.632-5.59-6.521-6.055-13.974-2.795-20.029-4.192-13.042-3.261-17.7-16.769-19.098-26.084-0.932-4.658-4.658-6.521-6.055-6.056-6.055-19.563-15.371-37.263-22.824-55.429-1.863-4.658-1.397-9.316-1.397-14.44 2.329 0.932 4.658 0.466 4.192-2.794-2.329-15.371-7.918-27.016-13.974-38.195 3.261-15.837 3.726-34.469 11.179-48.443 6.521-12.576 18.632-19.098 27.016-29.811 2.795-3.726 2.795-8.85 5.59-12.11 9.316-9.316 18.632-19.098 28.879-27.482 4.658-3.726 10.247 0 17.234-1.397 2.329-8.384 11.645-15.837 20.495-13.508 3.726 0.932 11.179-8.85 13.508-9.782 3.726-1.397 1.863 3.726 1.863 6.987 8.85-6.987 20.961-10.713 32.14-14.906" fill="#ff0000" fill-rule="nonzero" stroke="none" stroke-width="1" stroke-linecap="butt" stroke-linejoin="miter" stroke-miterlimit="10" stroke-dasharray="" stroke-dashoffset="0" font-family="none" font-weight="none" font-size="none" text-anchor="none" style="mix-blend-mode: normal" data-fill-palette-color="tertiary"></path></g><g transform="matrix(1,0,0,1,64,112.25123500352859)"><svg viewBox="0 0 192 135.49752999294282" height="135.49752999294282" width="192"><g><svg viewBox="0 0 192 135.49752999294282" height="135.49752999294282" width="192"><g><svg viewBox="0 0 192 135.49752999294282" height="135.49752999294282" width="192"><g><svg viewBox="0 0 192 135.49752999294282" height="135.49752999294282" width="192"><g><svg viewBox="0 0 192 135.49752999294282" height="135.49752999294282" width="192"><g><svg viewBox="0 0 192 135.49752999294282" height="135.49752999294282" width="192"><g transform="matrix(1,0,0,1,0,0)"><svg width="192" viewBox="0.85 -37.5 70.85000000000001 50" height="135.49752999294282" data-palette-color="#ff0000"><path d="M17.8-36.9L17.8-0.95Q19.85-0.5 22.03 0.55 24.2 1.6 26.5 2.7 28.8 3.8 31.18 4.63 33.55 5.45 35.95 5.45L35.95 5.45Q36.9 5.45 37.9 5.28 38.9 5.1 39.9 4.65L39.9 4.65Q39.95 4.9 39.95 5.1 39.95 5.3 39.95 5.55L39.95 5.55Q39.95 6.7 39.6 7.93 39.25 9.15 38.58 10.15 37.9 11.15 36.85 11.83 35.8 12.5 34.4 12.5L34.4 12.5Q32.8 12.5 31.13 11.65 29.45 10.8 27.65 9.55 25.85 8.3 23.95 6.83 22.05 5.35 20.05 4.1 18.05 2.85 15.95 2 13.85 1.15 11.7 1.15L11.7 1.15Q11.4 1.15 11.13 1.15 10.85 1.15 10.55 1.2L10.55 1.2 10.55-33.4Q8.15-32.25 6.88-30.08 5.6-27.9 5.6-24.8L5.6-24.8Q5.6-23.45 5.83-22.48 6.05-21.5 6.33-20.85 6.6-20.2 6.9-19.78 7.2-19.35 7.35-19.15L7.35-19.15Q4.35-19.15 2.6-20.55 0.85-21.95 0.85-24.95L0.85-24.95Q0.85-27.5 2.1-29.7 3.35-31.9 5.43-33.52 7.5-35.15 10.18-36.08 12.85-37 15.7-37L15.7-37Q16.25-37 16.78-36.98 17.3-36.95 17.8-36.9L17.8-36.9ZM44.6-20.95L50.5-20.9 50.5-0.1Q50.5 1.8 50.02 3.65 49.55 5.5 48.37 7 47.2 8.5 45.25 9.43 43.3 10.35 40.35 10.35L40.35 10.35Q38 10.35 36.35 9.75 34.7 9.15 33.65 8.15 32.6 7.15 32.12 5.88 31.65 4.6 31.65 3.25L31.65 3.25Q31.65 2.15 31.97 0.98 32.3-0.2 33-1.18 33.7-2.15 34.87-2.78 36.05-3.4 37.75-3.4L37.75-3.4Q38.2-3.4 38.92-3.28 39.65-3.15 40.37-2.65 41.1-2.15 41.6-1.13 42.1-0.1 42.1 1.7L42.1 1.7Q41.4 1 40.75 0.83 40.1 0.65 39.6 0.65L39.6 0.65Q37.65 0.65 36.9 1.6 36.15 2.55 36.15 3.7L36.15 3.7Q36.15 4.45 36.4 5.2 36.65 5.95 37.17 6.53 37.7 7.1 38.42 7.48 39.15 7.85 40.15 7.85L40.15 7.85Q41.8 7.85 42.87 6.63 43.95 5.4 43.95 2.7L43.95 2.7 43.95-9.7Q42.8-7.6 40.9-6.53 39-5.45 36.4-5.45L36.4-5.45Q33.85-5.45 31.65-6.5 29.45-7.55 27.8-9.55 26.15-11.55 25.22-14.45 24.3-17.35 24.3-21L24.3-21Q24.3-24.5 25.22-27.53 26.15-30.55 27.95-32.75 29.75-34.95 32.42-36.23 35.1-37.5 38.65-37.5L38.65-37.5Q40.6-37.5 42.55-37.08 44.5-36.65 46.07-35.7 47.65-34.75 48.62-33.25 49.6-31.75 49.6-29.6L49.6-29.6Q49.6-28.05 48.97-27.13 48.35-26.2 46.85-26.2L46.85-26.2Q46.25-26.2 45.15-26.43 44.05-26.65 43.15-27.5L43.15-27.5Q43.85-27.75 44.2-28.83 44.55-29.9 44.55-30.7L44.55-30.7Q44.55-31.15 44.4-31.85 44.25-32.55 43.82-33.23 43.4-33.9 42.57-34.38 41.75-34.85 40.4-34.85L40.4-34.85Q38.4-34.85 36.82-33.73 35.25-32.6 34.17-30.73 33.1-28.85 32.55-26.4 32-23.95 32-21.25L32-21.25Q32-18.3 32.62-16.15 33.25-14 34.22-12.58 35.2-11.15 36.4-10.48 37.6-9.8 38.8-9.8L38.8-9.8Q41.25-9.8 42.82-12.6 44.4-15.4 44.6-20.95L44.6-20.95ZM69.7-37.5L71.7-37.5 71.7-1.5Q71.7 1.4 71.15 3.63 70.59 5.85 69.37 7.35 68.15 8.85 66.2 9.6 64.25 10.35 61.4 10.35L61.4 10.35Q56.75 10.35 54.45 8.45 52.15 6.55 52.15 3.2L52.15 3.2Q52.15 2.3 52.37 1.15 52.59 0 53.3-1.03 54-2.05 55.22-2.73 56.45-3.4 58.5-3.4L58.5-3.4Q59.09-3.4 59.82-3.28 60.55-3.15 61.2-2.63 61.84-2.1 62.3-1.1 62.75-0.1 62.75 1.7L62.75 1.7Q61.95 1.05 61.34 0.85 60.75 0.65 59.95 0.65L59.95 0.65Q58.09 0.65 57.37 1.45 56.65 2.25 56.65 3.55L56.65 3.55Q56.65 5.6 57.95 6.73 59.25 7.85 61.15 7.85L61.15 7.85Q61.84 7.85 62.5 7.63 63.15 7.4 63.62 6.73 64.09 6.05 64.37 4.85 64.65 3.65 64.65 1.7L64.65 1.7 64.65-34Q62.34-32.95 60.95-30.83 59.55-28.7 59.55-25.25L59.55-25.25Q59.55-23.8 59.8-22.8 60.05-21.8 60.34-21.18 60.65-20.55 60.92-20.2 61.2-19.85 61.3-19.65L61.3-19.65Q58.3-19.65 56.55-21.05 54.8-22.45 54.8-25.45L54.8-25.45Q54.8-28 56.05-30.2 57.3-32.4 59.37-34.02 61.45-35.65 64.15-36.58 66.84-37.5 69.7-37.5L69.7-37.5Z" opacity="1" transform="matrix(1,0,0,1,0,0)" fill="#ff0000" class="undefined-text-0" data-fill-palette-color="primary" id="text-0"></path></svg></g></svg></g></svg></g></svg></g><g></g></svg></g></svg></g></svg></g></svg></g><defs></defs></svg><rect width="320" height="360" fill="none" stroke="none" visibility="hidden"></rect></g></svg></g></svg>